#!OML:ASF F:\VICON\USERDATA\INSTALL\rory3\rory3.ASF
:FULLY-SPECIFIED
:DEGREES
1
root -0.3517488472630778 17.76059443319929 -27.350686719983166 -0.8831570205580868 -4.68822411952231 -7.624249492797608
lfemur -15.66378853994486 2.1566762194519264 -9.040961360521889
ltibia 68.58750766842151
lfoot -1.1353312442258803 -8.964009659905537
ltoes 4.169587163902866
rfemur -13.98005974536032 6.310567687255769 32.288386250935446
rtibia 27.747753356197357
rfoot -26.549602115381937 -16.082763593436816
rtoes -0.19751121786943449
lowerback 10.656068449707071 0.18570710517694478 3.210045186860123
upperback 1.0674320047356458 0.9952440968519247 2.5806774741171092
thorax -4.62842175180882 0.42666879092369253 1.1635460320015463
lowerneck -17.337152405976475 -2.824145212380842 -1.0634153727972582
upperneck 20.28018174881699 -3.5978540799489576 0.11083376624395613
head 9.195558215343798 -1.7612650436699122 -0.16561881564838835
lclavicle -2.7971981697188497e-15 -4.1600762099493515e-16
lhumerus -30.674643351110536 3.221996798397795 83.44499584172564
lradius 19.99304304199347
lwrist 0.39062694438011025
lhand -27.950644980162675 24.535616066643925
lfingers 7.1250199999999975
lthumb -1.3381865904148618 54.522664273874234
rclavicle -2.7971981697188497e-15 -4.1600762099493515e-16
rhumerus -23.680343664566742 -16.174281920386054 -76.71795428226808
rradius 20.261984966214484
rwrist 9.520143239686272
rhand -20.36054019788459 22.344966367371512
rfingers 7.1250199999999975
rthumb 5.991696209046052 -7.707399282658188
2
root -0.3651528077793716 17.794777821746486 -26.455780527826377 -1.1698193965469796 -3.332488449750274 -7.8305049297185345
lfemur -18.978648041295315 1.7192366554810987 -9.133507671038618
ltibia 68.08237502015581
lfoot -1.827361924232199 -7.245586566214679
ltoes 6.511764510629755
rfemur -10.88715518372918 5.62134710953648 32.640067209768034
rtibia 26.614445945586372
rfoot -25.852351605388733 -16.190898390103506
rtoes -2.0074044696032813
lowerback 10.88288020542746 0.23509892699530116 3.3867854696862976
upperback 0.82416235118917 1.185287650327449 2.8577476415253553
thorax -5.1969987845852375 0.5215863964085456 1.379643440339578
lowerneck -16.603383660294085 -2.948964449840643 -2.1186545584495544
upperneck 20.373932934137855 -3.7117280302703772 0.031816426193050695
head 9.00522902547572 -1.8221399577426556 -0.101016022094183
lclavicle -2.797198183388918e-15 -4.160076170590677e-16
lhumerus -32.14482236768918 3.202172800754168 84.2983374907732
lradius 20.889092141688046
lwrist 1.6563395219111792
lhand -28.557268483752797 24.808384998519795
lfingers 7.1250199999999975
lthumb -1.9241696789236875 54.79775553267566
rclavicle -2.797198183388918e-15 -4.160076170590677e-16
rhumerus -23.910112109808455 -15.713289381632098 -76.7777702800483
rradius 22.390006478524455
rwrist 4.392090921450642
rhand -20.758124192946756 22.93992548710635
rfingers 7.1250199999999975
rthumb 5.607781592527943 -7.1242124580311526
3
root -0.3621767001076616 17.845689869429776 -25.52799498255051 -1.356884066717772 -2.7073316094166757 -8.320456495214152
lfemur -21.56210150071792 1.5894280652319783 -9.435400118448404
ltibia 66.23141954087735
lfoot -3.1442840343715694 -5.352006414195192
ltoes 1.8196710233409337
rfemur -7.744481209042851 5.515895294697523 32.983210519782915
rtibia 25.363667830489966
rfoot -24.397294838066216 -15.037645948063027
rtoes -3.6821044445496125
lowerback 10.97448227222453 0.786995264633104 4.335425506206186
upperback 0.5026245712865965 2.073926145082658 2.665093340625349
thorax -5.762336565569373 0.9195933233931322 0.5912741354190603
lowerneck -15.756428753921515 -3.079231206202864 -1.6087203175363192
upperneck 20.373490450667315 -3.923468676520708 -0.20647882942873141
head 8.694229766975734 -1.9134033467838008 -0.28264814314197273
lclavicle -2.7971981943053103e-15 -4.160076265051523e-16
lhumerus -33.723644085570925 2.3384734162378615 84.73612279379041
lradius 21.621479534532416
lwrist 2.6596942149444764
lhand -27.300356779940053 24.199334138700497
lfingers 7.1250199999999975
lthumb -0.7101771487020256 54.18189859665581
rclavicle -2.7971981943053103e-15 -4.160076265051523e-16
rhumerus -24.432078495887303 -16.885886766571726 -77.14067416544312
rradius 24.681593565898254
rwrist 2.7864244415762474
rhand -19.660639173464485 22.445326339913777
rfingers 7.1250199999999975
rthumb 6.6675025112586 -7.559703367511995
4
root -0.32132981357998597 17.90760914248213 -24.53141995267648 -1.2567302050072329 -3.1324777640108836 -8.705930613418735
lfemur -23.074018583855107 1.9662621312222162 -10.248212024952297
ltibia 63.00108547713833
lfoot -6.173334024417691 -2.3170914234913997
ltoes -6.387859508470987
rfemur -4.848768032505192 5.913535760011577 32.796317878541004
rtibia 23.92516692293154
rfoot -21.653312955228564 -13.051811188410255
rtoes -5.655945118371411
lowerback 10.200620715029935 1.6265727633765872 5.052219755392333
upperback 0.6139235709953533 3.090788188585334 2.576881691230714
thorax -4.94175752245074 1.462937765264815 0.03362784585685186
lowerneck -16.095987235992055 -3.1816529209324083 -1.916295095547452
upperneck 20.77698006536685 -4.05182039607379 -0.1843289403574151
head 9.050109822931795 -1.9644940927795969 -0.3102449740494789
lclavicle -2.7971981331342683e-15 -4.1600757402691027e-16
lhumerus -34.4364234181921 2.6814116318849432 84.77128387856855
lradius 22.183078583797705
lwrist 2.8503770072856476
lhand -29.901618470348325 23.183414687248597
lfingers 7.1250199999999975
lthumb -3.222659200989121 53.16411885303978
rclavicle -2.7971981331342683e-15 -4.1600757402691027e-16
rhumerus -24.09227370505701 -16.420455040407536 -77.09567983082967
rradius 26.174268524729012
rwrist 2.444189863775613
rhand -20.149420942228463 24.122943040870556
rfingers 7.1250199999999975
rthumb 6.195550609486757 -5.886599403309947
